#!OML:ASF E:/inclinewalkrobotboard/Project1/Captureday1/Session1/subject1.ASF
:FULLY-SPECIFIED
:DEGREES
338
root 0 0 0 -2.755537480003321 -0.1771736706949536 0.8825785945565676
lowerback 10.381641117083676 -1.0403628102048752 -2.6614697479706186
upperback 0.5742966180340998 -1.5832631991512778 1.667819117720306
thorax -5.125837313359444 -0.7085370859092179 3.4586843081930336
lowerneck -16.889066519806114 -2.634848070758718 -2.224606318880527
upperneck 19.561364442367434 -3.198291680469895 0.4765168560109583
head 8.948966107253401 -1.606784113751604 0.11621284591453351
rclavicle -4.0400544706597885E-16 -3.4415185778432356E-16
rhumerus -29.6086045886752 -18.508454892062566 -78.14893275623453
rradius 26.198901370138877
rwrist 4.291758459966936
rhand -17.595410696442197 22.86000465162255
rfingers 7.125020000000029
rthumb 8.648340561897982 -6.964454844585855
lclavicle -7.053135188311771E-16 -1.9055714402267126E-16
lhumerus -29.153482199453137 -2.7802342185135736 82.20881550385333
lradius 34.757075000503626
lwrist 5.9104603964727795
lhand -24.89458412770165 24.320632453028576
lfingers 7.1233520613157575
lthumb 1.5860967025952188 53.71330067267833
rfemur -11.12627104655202 7.849942778987476 25.852012576306016
rtibia 26.433802134436114
rfoot -13.832744866587039 -8.387367913540304
rtoes -1.5877821833147499
lfemur 4.502865395744026 -3.1247738866469126 -26.269492844038577
ltibia 20.73823236982109
lfoot -15.571435785978322 -0.11659365472680783
ltoes -4.73737773356244
339
root 0 0 0 -2.761671286001932 -0.17433136481482947 0.9827079202154917
lowerback 10.372618854174766 -1.0786716824184648 -2.7707844437250615
upperback 0.5831403211507271 -1.6471336682046256 1.659456393535069
thorax -5.111221192176471 -0.7382024878017939 3.521206368739573
lowerneck -16.844402316971447 -2.628494738900458 -2.2514575135406307
upperneck 19.54434475615181 -3.1904989084830735 0.5015063695320148
head 8.933879233351742 -1.6031553755031251 0.13065291329844575
rclavicle -4.1579972350839835E-16 -3.3970032517920447E-16
rhumerus -29.451607927741684 -18.35941616757244 -78.11529302557194
rradius 26.341379561898787
rwrist 4.323604220907234
rhand -17.62065505644369 22.746656973907893
rfingers 7.125020000000028
rthumb 8.625079078477285 -7.0755190469675355
lclavicle -7.247169720834892E-16 -1.896787737225774E-16
lhumerus -28.930718366865044 -3.031492615819193 82.19317815661796
lradius 35.23714495539015
lwrist 5.9550195040073834
lhand -24.747500576901714 24.406009790521548
lfingers 7.123226480600541
lthumb 1.726490432764523 53.75303482991032
rfemur -7.879475945999552 9.411598566259112 27.312394840314262
rtibia 18.40761912570913
rfoot -17.653600231314897 -8.886435391446941
rtoes -3.763756282164305
lfemur 4.526961188856339 -3.029510086868245 -26.1794478476469
ltibia 21.526182718287423
lfoot -15.190253959286414 -0.4690142244702864
ltoes -4.945498843863995
340
root 0 0 0 -2.7725789059943575 -0.1895753908488249 1.1063171078742964
lowerback 10.363643187695963 -1.1218048164535346 -2.9042737645440324
upperback 0.5969400617068015 -1.720276075777694 1.6456845208983513
thorax -5.091359691861049 -0.7720630711811607 3.59213961810869
lowerneck -16.776011334711576 -2.6201478848460478 -2.2880740931788566
upperneck 19.512496595431372 -3.1796278797954187 0.5381424564409656
head 8.910843935849977 -1.5989848409444218 0.1512393214515173
rclavicle -4.2722300445646016E-16 -3.334334534158564E-16
rhumerus -29.294546889790727 -18.204923113709867 -78.08017959090476
rradius 26.491474761238855
rwrist 4.357391705483687
rhand -17.646683310928463 22.62887271950234
rfingers 7.125020000000026
rthumb 8.601207462092951 -7.190774985431855
lclavicle -7.398497955990468E-16 -1.9420573677583134E-16
lhumerus -28.81896434665766 -3.168565070909864 82.18742094199663
lradius 35.49071520393839
lwrist 5.975340142411619
lhand -24.664716775301866 24.44762704023983
lfingers 7.123126821796085
lthumb 1.806288425332772 53.77269041524562
rfemur -7.308681373883431 9.47717743787741 27.63380104787229
rtibia 18.07344688842724
rfoot -17.813096647436417 -8.773694622726916
rtoes -3.67366853793167
lfemur 4.558983862472656 -2.853651134193466 -26.048748350804637
ltibia 22.915540568442697
lfoot -14.481473054687104 -1.1247410038045782
ltoes -5.24723927827859
341
root 0 0 0 -2.779736413121103 -0.16674916394505424 1.1865155553570788
lowerback 10.359548670671206 -1.153408543817894 -2.9927462860816414
upperback 0.6014328725787479 -1.7724536793506571 1.6411272232008969
thorax -5.084353984793257 -0.7961497844838576 3.6442690625517877
lowerneck -16.754829463028667 -2.614721758701915 -2.3033542087333796
upperneck 19.506859502981975 -3.171652703825242 0.5488027740025778
head 8.904073898303903 -1.5956853985541049 0.1587365961482976
rclavicle -4.358614196367474E-16 -3.266886720981253E-16
rhumerus -29.15518048049596 -18.07446223976185 -78.0488886303585
rradius 26.622026736268598
rwrist 4.387136485059357
rhand -17.66947942413761 22.526513685447302
rfingers 7.125020000000025
rthumb 8.579889957096544 -7.291346130187453
lclavicle -7.493939868129104E-16 -1.9698358543240705E-16
lhumerus -28.805091570567967 -3.1931387837102996 82.18825104335033
lradius 35.53048032276784
lwrist 5.976825626282581
lhand -24.64857116640291 24.452105812484017
lfingers 7.123086750374366
lthumb 1.8222797773143693 53.77400198898942
rfemur -7.635290786092167 8.827794136458232 27.669136444242184
rtibia 21.37377395825504
rfoot -16.29095106206441 -8.27590801417549
rtoes -2.3113742989079933
lfemur 3.9533718839937126 -2.560658127847889 -25.567222924414597
ltibia 25.326776586414873
lfoot -13.140051951343676 -2.103325825614384
ltoes -5.570222687505917
342
root 0 0 0 -2.7738518715517317 -0.08671088337935551 1.1334186867796907
lowerback 10.363213448573429 -1.1446125279549553 -2.9399591958525315
upperback 0.5848960574942828 -1.7536984316982025 1.657293022544438
thorax -5.104452148935356 -0.7873717864060115 3.6286862799560833
lowerneck -16.835626380079884 -2.6169978730034025 -2.2690730460967723
upperneck 19.55721531771973 -3.172666047019257 0.5031583206525942
head 8.932296046910285 -1.5952709366705304 0.13667615982354686
rclavicle -4.423631369653E-16 -3.1876321620911984E-16
rhumerus -29.041016795041912 -17.974322555689817 -78.02369850435895
rradius 26.724970408849646
rwrist 4.4105173299736595
rhand -17.68865303252151 22.445471089932152
rfingers 7.125020000000023
rthumb 8.562346333388088 -7.371241444558638
lclavicle -7.52234424239613E-16 -1.9417304708230367E-16
lhumerus -28.845420401000414 -3.147963549181508 82.19118267749582
lradius 35.446660309016934
lwrist 5.96991525741069
lhand -24.67490368551215 24.437239389515288
lfingers 7.123096988476864
lthumb 1.7975015201276339 53.765983493467644
rfemur -7.757110877117183 8.033667373231145 27.898466648374246
rtibia 25.31877787697243
rfoot -14.500144490213573 -7.601614710589056
rtoes -0.5450312820805179
lfemur 2.220366483668384 -2.150308572642615 -24.5149322089021
ltibia 28.855035157456435
lfoot -11.077063420579957 -3.2942009373924463
ltoes -5.831775160956223
343
root 0 0 0 -2.7533832678421812 0.01826191829489865 0.9183717682155735
lowerback 10.374165136343942 -1.081749869267984 -2.7129449251467466
upperback 0.549157006694732 -1.6420902858326238 1.6923889428854286
thorax -5.149205702060792 -0.7355688168696888 3.5216753116930803
lowerneck -17.00705062802818 -2.62771564772715 -2.18622171154061
upperneck 19.65591622039068 -3.183890306037391 0.40568426520673917
head 8.991922614406995 -1.5986987839103501 0.08634884783435925
rclavicle -4.497251258370883E-16 -3.117085933466254E-16
rhumerus -28.930954810981305 -17.87970523660468 -78.00061403316494
rradius 26.822109708672397
rwrist 4.431825463861423
rhand -17.707232156494413 22.368866942458194
rfingers 7.125020000000022
rthumb 8.545523831563562 -7.446796154563021
lclavicle -7.52704661529364E-16 -1.910830169697487E-16
lhumerus -28.90129309963222 -3.079775166948366 82.19425242212414
lradius 35.327258242107554
lwrist 5.9621412787079855
lhand -24.715686631720136 24.417572954194977
lfingers 7.1231301492746315
lthumb 1.759347210977607 53.754318644087476
rfemur -7.36912173049131 7.352167615889641 28.408911266055917
rtibia 28.630614005633696
rfoot -13.03724240474117 -6.893360602210675
rtoes 1.1677386397677116
lfemur -1.0457363710876937 -1.5690793851385767 -22.67301446704048
ltibia 33.95007052377687
lfoot -8.076466116313338 -4.741216360658708
ltoes -6.045132530122664
